<svg xmlns="http://www.w3.org/2000/svg" viewBox="0 0 58 14" width="100%" height="100%" style="background-color: #131313;">
  <defs>
    <linearGradient id="retroGrad" x1="0" y1="0" x2="0" y2="1">
      <stop offset="28.57%" stop-color="#FFD400" />
      <stop offset="28.57%" stop-color="#E89500" />
      <stop offset="71.43%" stop-color="#E89500" />
      <stop offset="71.43%" stop-color="#C27A41" />
    </linearGradient>

    <path id="char-M" d="M 0 0 H 1 V 1 H 2 V 2 H 3 V 1 H 4 V 0 H 5 V 7 H 4 V 2 H 3 V 3 H 2 V 2 H 1 V 7 H 0 Z" />
    
    <path id="char-A" d="M 1 0 H 4 V 1 H 5 V 7 H 4 V 4 H 1 V 7 H 0 V 1 H 1 Z M 1 1 V 3 H 4 V 1 H 1 Z" />
    
    <path id="char-N" d="M 0 0 H 1 V 1 H 2 V 2 H 3 V 3 H 4 V 0 H 5 V 7 H 4 V 4 H 3 V 3 H 2 V 2 H 1 V 7 H 0 Z" />
    
    <path id="char-T" d="M 0 0 H 5 V 1 H 3 V 7 H 2 V 1 H 0 Z" />
    
    <path id="char-I" d="M 0 0 H 3 V 1 H 2 V 6 H 3 V 7 H 0 V 6 H 1 V 1 H 0 Z" />
    
    <path id="char-S" d="M 1 0 H 5 V 6 H 4 V 7 H 0 V 6 H 4 V 4 H 1 V 3 H 0 V 1 H 1 Z" />
    
    <path id="char-C" d="M 1 0 H 5 V 2 H 4 V 1 H 1 V 6 H 4 V 5 H 5 V 7 H 1 V 6 H 0 V 1 H 1 Z" />
    
    <path id="char-L" d="M 0 0 H 1 V 6 H 5 V 7 H 0 Z" />

    <g id="wordmark" fill-rule="evenodd">
      <use href="#char-M" x="0" />
      <use href="#char-A" x="6" />
      <use href="#char-N" x="12" />
      <use href="#char-T" x="18" />
      <use href="#char-I" x="24" />
      <use href="#char-S" x="28" />
      
      <use href="#char-C" x="37" />
      <use href="#char-L" x="43" />
      <use href="#char-I" x="49" />
    </g>
  </defs>

  <g transform="translate(3, 3)">
    <use href="#wordmark" x="0.3" y="0.3" fill="none" stroke="url(#retroGrad)" stroke-width="0.15" stroke-linejoin="miter" stroke-linecap="square" />
    <use href="#wordmark" x="0.6" y="0.6" fill="none" stroke="url(#retroGrad)" stroke-width="0.15" stroke-linejoin="miter" stroke-linecap="square" />
    <use href="#wordmark" x="0.9" y="0.9" fill="none" stroke="url(#retroGrad)" stroke-width="0.15" stroke-linejoin="miter" stroke-linecap="square" />
    <use href="#wordmark" x="1.2" y="1.2" fill="none" stroke="url(#retroGrad)" stroke-width="0.15" stroke-linejoin="miter" stroke-linecap="square" />

    <use href="#wordmark" x="0" y="0" fill="url(#retroGrad)" />
  </g>
</svg>
